<?xml version="1.0" encoding="utf-8"?>
<!-- Generator: Adobe Illustrator 12.0.1, SVG Export Plug-In . SVG Version: 6.00 Build 51448)  -->
<!DOCTYPE svg PUBLIC "-//W3C//DTD SVG 1.1//EN" "http://www.w3.org/Graphics/SVG/1.1/DTD/svg11.dtd" [
	<!ENTITY ns_svg "http://www.w3.org/2000/svg">
	<!ENTITY ns_xlink "http://www.w3.org/1999/xlink">
]>
<svg  version="1.1" id="Layer_1" xmlns="&ns_svg;" xmlns:xlink="&ns_xlink;" width="175.748" height="59.534"
	 viewBox="0 0 175.748 59.534" overflow="visible" enable-background="new 0 0 175.748 59.534" xml:space="preserve">
<g>
	<path fill-rule="evenodd" clip-rule="evenodd" d="M36.587,14.767l1.055-4.431l0.211-0.703l1.758-7.313L40.103,0H27.727
		l-1.196,2.321l-3.797,7.313l-0.352,0.703l-2.109,4.079l-0.141-4.079V9.634l-0.281-7.313L19.781,0H7.826L7.264,2.321L5.506,9.634
		l-0.141,0.703l-1.055,4.431H4.24L0.865,29.112h8.931l3.445-14.345l0.352-1.547l0.07,1.547l0.422,14.345h5.907l7.384-14.345h0.07
		l0.773-1.547l-0.352,1.547l-3.305,14.345h8.579L36.587,14.767L36.587,14.767z M172.443,2.532l-1.195,5.133h3.516l-0.422,1.969
		l-0.211,0.703l-0.633,2.602h-3.446l-0.422,1.829l-1.617,6.61c-0.141,0.703-0.211,1.055-0.211,1.407
		c0,0.703,0.633,1.054,1.828,1.054h1.618l-1.267,5.274h-3.938c-2.461,0-4.078-0.351-4.923-0.914
		c-0.914-0.563-1.406-1.758-1.406-3.516c0-0.422,0.281-1.336,0.492-2.602l1.759-7.313l0.352-1.829h-3.165l-0.422,1.829
		l-3.516,14.345h-7.524l3.517-14.345l0.422-1.829h-2.813c0.211,0.633,0.281,1.266,0.352,1.829l0,0c0,0.281,0,0.563,0,0.774
		c0,4.008-1.266,7.383-4.008,10.055c-2.672,2.742-5.978,4.008-9.985,4.008c-2.883,0-5.273-0.632-7.102-1.969
		c-1.829-1.195-2.884-3.094-3.235-5.485c-0.773,2.743-2.109,4.711-4.008,5.836c-1.828,1.125-4.712,1.617-8.368,1.617
		c-3.306,0-5.978-0.422-7.806-1.266c-1.969-0.984-2.883-2.25-2.883-3.938c0-0.141,0-0.422,0.07-0.703c0-0.211,0-0.563,0-0.914
		c-1.406,2.461-3.094,4.219-4.992,5.414c-1.759,0.984-4.149,1.406-7.103,1.406c-3.024,0-5.555-0.703-7.454-2.32
		c-1.688-1.688-2.531-3.938-2.531-6.821c0-1.618,0.421-3.516,1.266-5.696l0,0c0.07-0.07,0.07-0.141,0.141-0.211
		c-0.281,0-0.563,0.141-0.774,0.211c-0.07,0-0.07,0-0.141,0c-1.125,0.422-1.969,1.055-2.602,1.899
		c-0.914,1.125-1.618,2.813-2.18,5.133l-1.758,7.313h-8.228l1.758-7.313c-1.617,2.813-3.516,4.852-5.555,6.047
		c-1.899,1.266-4.43,1.758-7.313,1.758c-3.165,0-5.485-0.703-7.103-2.461c-1.758-1.687-2.532-4.148-2.532-7.102l-2.25,9.071h-8.087
		l3.375-14.345h0.07l0.985-4.431l0.21-0.703l0.563-2.391h8.086l-0.563,2.391l-0.141,0.703l-1.125,4.431l-0.07,0.563
		c0.07-0.211,0.141-0.352,0.281-0.563l0,0c1.055-1.758,2.25-3.305,3.516-4.431c0.282-0.281,0.493-0.492,0.704-0.703
		c0.351-0.281,0.703-0.493,1.055-0.704c2.109-1.336,4.711-1.968,7.875-1.968c2.813,0,5.133,0.632,6.821,1.968
		c0.281,0.211,0.563,0.422,0.773,0.704c0.211,0.211,0.352,0.422,0.563,0.703c0.914,1.125,1.406,2.672,1.547,4.431l0,0
		c0,0.07,0,0.07,0,0.07l0.07-0.07l0.984-4.431l0.141-0.703l0.493-2.391h7.735l-0.633,2.391l-0.07,0.211
		c0.07-0.07,0.141-0.141,0.211-0.211c1.969-1.547,3.938-2.391,6.188-2.391h0.563l-0.563,2.391l-0.141,0.703l-0.07,0.282
		c0.07-0.141,0.211-0.211,0.352-0.282c0.281-0.281,0.563-0.492,0.844-0.703c2.672-1.829,5.625-2.672,8.93-2.672
		c3.095,0,5.556,0.703,7.243,2.25c0.141,0.141,0.281,0.282,0.422,0.422c0.211,0.211,0.352,0.422,0.563,0.703
		c0.914,1.125,1.406,2.672,1.477,4.431l0,0c0.07,0.352,0.07,0.633,0.07,0.984c0,0.633-0.141,1.477-0.281,2.391
		c-0.07,0.281-0.07,0.632-0.211,1.054l-6.751,2.602h13.432c-0.07,0.492-0.211,0.774-0.211,0.985c0,1.406,1.055,2.039,3.094,2.039
		c2.18,0,3.164-0.633,3.164-1.898c0-0.844-0.984-1.688-3.164-2.25l-2.25-0.563c-3.657-0.915-5.696-2.743-5.907-5.344l0,0
		c0-0.141,0-0.352,0-0.492c0-1.547,0.422-2.883,1.267-3.938c0.21-0.281,0.421-0.492,0.632-0.703
		c0.281-0.281,0.634-0.493,0.985-0.704c1.969-1.336,4.641-1.968,8.227-1.968c3.235,0,5.626,0.351,7.103,1.266
		c0.633,0.422,1.195,0.914,1.547,1.406c0.141,0.211,0.281,0.422,0.352,0.703c0.281,0.634,0.422,1.266,0.422,2.181
		c0,0.421-0.141,1.055-0.211,1.688h-7.242c0.141-0.141,0.141-0.422,0.141-0.422c0-0.211,0.069-0.493,0.069-0.563
		c0-1.195-0.984-1.758-2.953-1.758c-1.898,0-2.883,0.492-2.883,1.477c0,0.704,0.914,1.336,2.742,1.829c0,0,0.07,0,0.141,0
		c0.07,0.07,0.141,0.07,0.211,0.07l2.462,0.492c2.602,0.492,4.289,1.055,5.063,1.688c0.844,0.421,1.406,1.406,1.758,2.883
		c0.211-1.899,0.703-3.586,1.336-5.133l0,0c0.774-1.688,1.829-3.165,3.164-4.36c0.07,0,0.07-0.07,0.142-0.07
		c0.211-0.281,0.563-0.492,0.844-0.703c2.391-1.758,5.344-2.672,8.93-2.672c3.376,0,5.978,0.843,7.735,2.672
		c0.211,0.211,0.352,0.422,0.563,0.703c0.422,0.563,0.773,1.196,1.056,1.97l0.421-1.97l0.211-0.703l0.423-1.969h3.375l0.141-0.563
		c0.563-2.25,1.336-3.797,2.25-4.781c0.211-0.211,0.422-0.422,0.633-0.563c1.266-0.914,3.587-1.336,6.61-1.336h1.969l-0.422,1.899
		l-0.633,2.391h-0.633c-0.563,0-0.984,0.07-1.266,0.422c-0.212,0.211-0.563,0.844-0.773,1.969l-0.07,0.563h3.094l1.336-5.133
		H172.443L172.443,2.532z M67.457,21.236l1.266-5.485h-8.438c0-0.422,0-0.844,0-0.984c0-1.829-0.492-2.743-1.758-2.743
		s-2.531,1.055-3.656,2.743l0,0c0,0.07,0,0.07-0.07,0.07c-1.125,1.969-1.688,3.797-1.688,5.836c0,2.321,0.773,3.586,2.531,3.586
		c1.266,0,2.391-1.125,3.305-3.024H67.457L67.457,21.236z M94.389,21.588c1.196-1.758,1.758-3.657,1.758-5.837
		c0-0.352,0-0.633-0.07-0.984l0,0c-0.141-1.758-0.914-2.743-2.18-2.743c-1.406,0-2.813,0.914-3.938,2.743l0,0
		c-1.196,1.688-1.829,3.657-1.829,5.766c0,2.461,0.985,3.727,2.602,3.727C92.139,24.26,93.404,23.346,94.389,21.588L94.389,21.588z
		 M141.151,14.767L141.151,14.767c-0.211-1.758-0.985-2.743-2.251-2.743c-1.547,0-2.813,0.914-4.078,2.743l0,0
		c-1.125,1.688-1.758,3.657-1.758,5.766c0,2.461,0.844,3.727,2.672,3.727c1.266,0,2.532-0.915,3.728-2.672
		c1.125-1.758,1.758-3.657,1.758-5.837C141.222,15.4,141.151,15.119,141.151,14.767L141.151,14.767z M49.174,2.321l-0.703,2.883
		h-8.368l0.632-2.883L41.228,0h8.438L49.174,2.321L49.174,2.321z"/>
	<path fill-rule="evenodd" clip-rule="evenodd" d="M4.802,45.356l-0.421,1.547c-0.141,0.773-0.211,1.336-0.07,1.547
		c0.141,0.281,0.492,0.352,0.984,0.352h0.422c0.492,0,0.844-0.07,1.125-0.352c0.281-0.211,0.493-0.773,0.633-1.547l0.351-1.547
		c0.211-0.844,0.281-1.337,0.141-1.618c-0.141-0.21-0.492-0.351-0.985-0.351H6.561c-0.492,0-0.914,0.141-1.125,0.351
		C5.154,44.019,4.943,44.512,4.802,45.356L4.802,45.356z M12.186,40.996l-2.25,9.563c-0.21,1.055-0.492,1.829-0.773,2.32
		c-0.281,0.493-0.633,0.915-1.125,1.266c-0.352,0.352-0.844,0.563-1.477,0.774C5.928,55.06,5.295,55.13,4.662,55.13H3.467
		c-1.266,0-2.25-0.211-2.813-0.634c-0.633-0.492-0.773-1.124-0.563-1.969l0.141-0.563h3.305c-0.07,0.281-0.07,0.563,0.07,0.633
		c0.07,0.141,0.352,0.211,0.773,0.211h0.492c0.493,0,0.844-0.07,1.055-0.352c0.211-0.211,0.422-0.703,0.563-1.406l0.351-1.477
		c-0.351,0.492-0.773,0.844-1.336,1.055c-0.563,0.281-1.266,0.352-2.11,0.352c-1.195,0-1.968-0.281-2.391-0.914
		c-0.422-0.633-0.492-1.617-0.141-2.953l0.422-2.039c0.352-1.477,0.914-2.532,1.688-3.235c0.703-0.633,1.688-0.984,2.953-0.984
		c0.703,0,1.266,0.07,1.688,0.352c0.421,0.211,0.703,0.563,0.843,1.055l0.282-1.266H12.186L12.186,40.996z M18.233,49.153h0.985
		c0.351,0,0.633-0.07,0.844-0.211c0.211-0.211,0.352-0.422,0.422-0.703l0.07-0.563c0.07-0.281,0.07-0.492-0.07-0.633
		s-0.352-0.211-0.703-0.211h-0.985c-0.351,0-0.633,0.07-0.844,0.211c-0.21,0.141-0.351,0.352-0.421,0.633l-0.141,0.563
		c-0.071,0.281,0,0.492,0.141,0.703C17.671,49.083,17.882,49.153,18.233,49.153L18.233,49.153z M15.491,43.598
		c0.211-0.985,0.703-1.688,1.336-2.109c0.704-0.423,1.688-0.634,2.954-0.634h1.688c1.547,0,2.531,0.211,3.094,0.774
		c0.493,0.491,0.633,1.336,0.352,2.601l-1.688,7.032h-3.445l0.211-0.984c-0.352,0.352-0.773,0.633-1.196,0.844
		c-0.492,0.141-0.914,0.281-1.477,0.281h-1.266c-0.915,0-1.617-0.281-1.969-0.773c-0.422-0.492-0.493-1.195-0.281-2.109l0.211-0.984
		c0.211-0.844,0.703-1.547,1.336-2.039c0.703-0.422,1.617-0.703,2.672-0.703h0.915c0.492,0,0.914,0.07,1.336,0.281
		c0.352,0.14,0.633,0.352,0.773,0.703l0.493-2.04c0.07-0.28,0.07-0.562-0.07-0.702c-0.14-0.142-0.352-0.212-0.703-0.212h-0.563
		c-0.421,0-0.703,0.07-0.914,0.212c-0.141,0.07-0.281,0.28-0.352,0.563H15.491L15.491,43.598z M27.164,51.262l2.391-10.267h3.305
		l-0.421,1.477c0.421-0.563,0.843-0.983,1.336-1.266c0.563-0.211,1.195-0.352,1.969-0.352c0.844,0,1.406,0.141,1.828,0.352
		c0.352,0.282,0.633,0.703,0.703,1.266c0.422-0.563,0.844-0.983,1.336-1.266c0.563-0.211,1.195-0.352,1.969-0.352
		c1.195,0,1.969,0.281,2.25,0.774c0.352,0.491,0.352,1.477,0,2.953l-1.547,6.68h-3.375l1.406-5.978
		c0.141-0.772,0.211-1.266,0.07-1.477c-0.141-0.21-0.422-0.28-0.985-0.28c-0.421,0-0.773,0.07-0.984,0.351
		c-0.281,0.211-0.492,0.774-0.633,1.618l-1.336,5.766H33l1.407-5.978c0.211-0.772,0.211-1.266,0.141-1.477
		c-0.141-0.21-0.493-0.28-0.985-0.28s-0.844,0.07-1.054,0.351c-0.211,0.211-0.422,0.774-0.633,1.618l-1.336,5.766H27.164
		L27.164,51.262z M56.417,48.098c-0.352,1.125-0.914,1.969-1.688,2.531c-0.844,0.492-1.899,0.773-3.375,0.773h-1.477
		c-1.547,0-2.602-0.352-3.094-0.984s-0.563-1.688-0.211-3.234l0.492-2.109c0.352-1.547,0.914-2.673,1.758-3.306
		c0.773-0.633,1.968-0.914,3.516-0.914h1.477c1.618,0,2.672,0.281,3.165,0.914s0.563,1.759,0.211,3.306l-0.422,1.617h-6.61
		l-0.281,1.195c-0.141,0.492-0.07,0.844,0.07,0.984c0.141,0.211,0.492,0.281,0.984,0.281h0.422c0.492,0,0.843-0.07,1.125-0.211
		c0.211-0.141,0.352-0.422,0.492-0.844H56.417L56.417,48.098z M50.58,44.934h3.235l0.07-0.352c0.141-0.704,0.141-1.125,0-1.337
		c-0.141-0.21-0.422-0.352-0.984-0.352h-0.492c-0.492,0-0.914,0.142-1.125,0.352c-0.282,0.212-0.493,0.633-0.633,1.267L50.58,44.934
		L50.58,44.934z M81.872,48.309h3.587c0,0.352,0.07,0.633,0.21,0.773c0.211,0.141,0.492,0.211,0.984,0.211h0.492
		c0.563,0,0.844-0.07,1.125-0.211c0.211-0.141,0.351-0.422,0.492-0.773c0.07-0.352,0-0.633-0.141-0.773
		c-0.14-0.141-0.562-0.211-1.054-0.281l-2.18-0.211c-0.915-0.07-1.618-0.352-2.04-0.844c-0.422-0.492-0.563-1.056-0.422-1.758
		l0.211-0.844c0.211-0.915,0.704-1.618,1.477-2.039c0.844-0.493,1.899-0.704,3.235-0.704h2.039c1.266,0,2.109,0.211,2.602,0.634
		c0.563,0.491,0.703,1.124,0.492,2.039l-0.07,0.21h-3.445c0.07-0.28,0-0.492-0.141-0.632c-0.211-0.141-0.493-0.212-0.914-0.212
		H87.92c-0.352,0-0.774,0.071-0.984,0.212c-0.211,0.14-0.352,0.422-0.492,0.772c-0.07,0.281,0,0.493,0.07,0.634
		c0.14,0.07,0.422,0.211,0.773,0.211l2.32,0.211c1.125,0.141,1.898,0.351,2.391,0.773c0.422,0.422,0.563,0.984,0.352,1.758
		l-0.211,0.844c-0.211,0.984-0.703,1.688-1.547,2.25c-0.773,0.563-1.829,0.844-2.953,0.844h-2.32c-1.407,0-2.392-0.281-2.954-0.773
		c-0.563-0.492-0.704-1.195-0.493-2.18V48.309L81.872,48.309z M98.327,51.403c-0.634,0-1.195-0.141-1.617-0.281
		c-0.423-0.141-0.704-0.422-0.914-0.773c-0.141-0.281-0.211-0.563-0.211-0.844c-0.07-0.352,0-0.844,0.141-1.477l0.141-0.563
		l0.984-4.078h-1.266l0.562-2.392h1.267l0.421-1.969h3.517l-0.492,1.969h4.642l-0.563,2.392h-4.641l-0.984,4.148
		c-0.142,0.633-0.142,1.055-0.07,1.195c0.141,0.141,0.422,0.281,0.844,0.281s0.773-0.07,0.914-0.281
		c0.211-0.141,0.352-0.422,0.422-0.844l0.211-0.844h2.883l-0.281,1.125c-0.211,1.125-0.703,1.898-1.336,2.461
		c-0.703,0.492-1.617,0.773-2.742,0.773H98.327L98.327,51.403z M119.212,40.996l-2.392,10.267h-3.305l0.352-1.477
		c-0.422,0.563-0.914,0.984-1.477,1.195c-0.492,0.281-1.195,0.422-1.969,0.422c-1.336,0-2.18-0.281-2.532-0.773
		c-0.351-0.563-0.421-1.547-0.07-2.953l1.548-6.681h3.445l-1.336,5.907c-0.211,0.773-0.211,1.266-0.07,1.477
		s0.492,0.352,1.195,0.352c0.492,0,0.914-0.141,1.195-0.422c0.211-0.211,0.422-0.703,0.633-1.547l1.336-5.767H119.212
		L119.212,40.996z M128.354,43.387h-0.422c-0.493,0-0.845,0.141-1.056,0.351c-0.28,0.281-0.491,0.774-0.703,1.618l-0.352,1.547
		c-0.141,0.773-0.211,1.336-0.07,1.547c0.141,0.281,0.422,0.352,0.915,0.352h0.421c0.422,0,0.845-0.07,1.055-0.352
		c0.212-0.211,0.423-0.703,0.633-1.547l0.353-1.547c0.211-0.844,0.211-1.337,0.07-1.618
		C129.127,43.528,128.774,43.387,128.354,43.387L128.354,43.387z M134.611,36.707l-3.375,14.556h-3.375l0.351-1.477
		c-0.421,0.563-0.914,0.914-1.406,1.195c-0.563,0.281-1.195,0.422-1.898,0.422c-1.266,0-2.109-0.352-2.531-1.055
		s-0.492-1.758-0.141-3.164l0.492-2.109c0.352-1.477,0.914-2.532,1.617-3.235c0.773-0.633,1.758-0.984,3.023-0.984
		c0.634,0,1.196,0.07,1.617,0.352c0.493,0.211,0.774,0.563,0.845,1.055l1.336-5.555H134.611L134.611,36.707z M138.619,39.308
		l0.634-2.602h3.516l-0.633,2.602H138.619L138.619,39.308z M135.877,51.262l2.392-10.267h3.516l-2.391,10.267H135.877
		L135.877,51.262z M148.605,45.285l-0.423,1.618c-0.211,0.914-0.211,1.477-0.07,1.688c0.07,0.211,0.423,0.352,0.914,0.352h0.423
		c0.563,0,0.914-0.141,1.125-0.352s0.422-0.773,0.633-1.688l0.422-1.618c0.211-0.913,0.211-1.477,0.141-1.687
		c-0.141-0.211-0.492-0.282-0.984-0.282h-0.422c-0.492,0-0.914,0.071-1.125,0.282C149.026,43.878,148.815,44.372,148.605,45.285
		L148.605,45.285z M145.089,45.075c0.352-1.547,0.984-2.673,1.758-3.306s1.969-0.914,3.587-0.914h1.406
		c1.617,0,2.672,0.281,3.164,0.914s0.563,1.759,0.211,3.306l-0.492,2.109c-0.352,1.547-0.914,2.602-1.758,3.234
		c-0.773,0.633-1.969,0.984-3.586,0.984h-1.407c-1.617,0-2.672-0.352-3.164-0.984s-0.563-1.688-0.211-3.234L145.089,45.075
		L145.089,45.075z M158.59,48.309h3.587c-0.07,0.352,0,0.633,0.211,0.773c0.141,0.141,0.492,0.211,0.984,0.211h0.422
		c0.563,0,0.984-0.07,1.195-0.211s0.422-0.422,0.492-0.773s0.07-0.633-0.141-0.773c-0.141-0.141-0.492-0.211-1.125-0.281
		l-2.109-0.211c-0.985-0.07-1.617-0.352-2.11-0.844c-0.422-0.492-0.563-1.056-0.422-1.758l0.211-0.844
		c0.211-0.915,0.704-1.618,1.548-2.039c0.773-0.493,1.828-0.704,3.164-0.704h2.109c1.266,0,2.109,0.211,2.673,0.634
		c0.491,0.491,0.632,1.124,0.421,2.039v0.21h-3.445c0.07-0.28,0-0.492-0.211-0.632c-0.141-0.141-0.492-0.212-0.914-0.212h-0.422
		c-0.492,0-0.844,0.071-1.125,0.212c-0.211,0.14-0.352,0.422-0.422,0.772c-0.07,0.281-0.07,0.493,0.07,0.634
		c0.07,0.07,0.352,0.211,0.703,0.211l2.391,0.211c1.125,0.141,1.898,0.351,2.391,0.773c0.423,0.422,0.563,0.984,0.423,1.758
		l-0.212,0.844c-0.211,0.984-0.773,1.688-1.547,2.25c-0.844,0.563-1.828,0.844-3.094,0.844h-2.25c-1.406,0-2.392-0.281-3.024-0.773
		c-0.563-0.492-0.703-1.195-0.492-2.18L158.59,48.309L158.59,48.309z"/>
	<path fill-rule="evenodd" clip-rule="evenodd" d="M172.373,41.347l-0.07,0.492h-0.633l-0.281,2.039h-0.633l0.28-2.039h-0.702
		l0.07-0.492H172.373L172.373,41.347z M175.748,41.347l-0.352,2.531h-0.633l0.281-1.898l-0.844,1.898h-0.633l-0.352-1.898
		l-0.211,1.898h-0.633l0.352-2.531h0.914l0.352,1.829l0.773-1.829H175.748L175.748,41.347z"/>
	<path fill-rule="evenodd" clip-rule="evenodd" d="M105.711,32.557c9.141-0.211,17.86,0.423,25.033,1.688
		c-4.993-0.423-10.407-0.634-15.963-0.493c-23.064,0.563-40.714,6.54-39.448,13.432c0.562,2.883,4.5,5.484,10.547,7.454
		c-5.766-0.984-10.618-2.392-14.064-4.009c-5.133,4.501-18.423,8.087-34.456,8.79c-11.462,0.492-22.081-0.633-29.675-2.742
		c5.907,0.633,12.587,0.844,19.549,0.492c22.432-0.914,39.589-6.821,38.324-13.08c-0.703-3.586-7.383-6.539-17.157-8.297
		c8.579,0.773,15.821,2.461,20.392,4.781C74.418,36.214,88.553,32.98,105.711,32.557L105.711,32.557z"/>
</g>
</svg>
